<?xml version="1.0" standalone="no"?>
<!DOCTYPE svg PUBLIC "-//W3C//DTD SVG 20010904//EN"
 "http://www.w3.org/TR/2001/REC-SVG-20010904/DTD/svg10.dtd">
<svg version="1.0" xmlns="http://www.w3.org/2000/svg"
 width="559.000000pt" height="314.000000pt" viewBox="0 0 559.000000 314.000000"
 preserveAspectRatio="xMidYMid meet">
<metadata>
Created by potrace 1.16, written by Peter Selinger 2001-2019
</metadata>
<g transform="translate(0.000000,314.000000) scale(0.100000,-0.100000)"
fill="#000000" stroke="none">
<path d="M0 1570 l0 -1570 1180 0 c1042 0 1180 2 1180 15 0 8 -4 15 -10 15 -5
0 -10 9 -10 21 0 11 -11 35 -25 53 -30 39 -33 82 -7 88 31 9 69 -35 63 -71 -1
-8 1 -17 6 -20 4 -3 16 -21 25 -38 12 -23 14 -35 6 -40 -29 -17 50 -22 380
-22 275 -1 352 2 352 12 0 9 3 8 9 -2 5 -7 15 -11 22 -9 10 3 7 10 -9 23 -22
20 -30 45 -12 45 5 0 14 -8 19 -17 6 -10 11 -13 11 -6 0 6 -4 15 -10 18 -6 3
-10 14 -10 24 0 10 -7 24 -15 31 -11 10 -18 9 -30 -4 -9 -9 -13 -16 -10 -16 4
0 0 -11 -9 -25 -9 -13 -16 -32 -16 -42 -1 -17 -2 -16 -15 1 -8 11 -15 14 -15
7 0 -7 -4 -9 -10 -6 -5 3 -10 27 -10 53 -1 41 -2 45 -14 30 -16 -22 -26 -23
-26 -3 0 9 -11 20 -25 25 -17 6 -27 20 -31 40 -5 23 -10 28 -19 20 -14 -12
-31 4 -37 35 -4 25 -27 26 -42 3 -8 -13 -7 -24 6 -46 14 -24 15 -34 6 -60 -13
-33 -40 -46 -58 -28 -8 8 -13 7 -19 -2 -6 -11 -10 -11 -18 0 -13 16 -26 63
-29 101 -3 38 -13 46 -28 24 -28 -37 -57 -3 -31 37 13 20 14 25 1 35 -12 10
-17 7 -30 -16 -8 -15 -18 -36 -22 -45 -3 -10 -13 -18 -20 -18 -18 0 -18 14 1
30 22 18 18 39 -9 46 -21 5 -25 13 -31 63 -8 66 -17 86 -37 78 -11 -4 -17 11
-24 64 -9 62 -8 69 8 69 9 0 20 5 24 11 4 7 -6 10 -32 7 -46 -4 -54 19 -14 39
14 7 19 13 11 13 -11 0 -11 3 -1 15 15 18 6 46 -26 84 -21 26 -23 31 -11 54
21 40 7 121 -26 155 -24 25 -26 31 -16 66 7 25 7 42 1 48 -6 6 -7 22 -1 41 13
46 11 60 -6 53 -14 -5 -14 -2 0 24 8 16 11 31 7 34 -5 3 -7 18 -5 33 3 19 -1
31 -14 39 -24 15 -83 6 -83 -12 0 -8 -7 -26 -16 -39 -9 -14 -14 -31 -11 -39 3
-8 3 -17 -1 -21 -11 -11 -8 -39 7 -51 9 -7 11 -19 6 -33 -8 -27 -29 -23 -33 7
-2 12 -8 22 -13 22 -5 0 -9 5 -9 11 0 15 -74 120 -105 149 -44 41 -105 136
-131 208 -35 93 -44 257 -19 366 12 55 16 115 15 209 -3 230 -4 227 25 227 25
0 33 14 15 25 -6 4 -8 11 -4 16 4 6 13 4 23 -5 19 -17 61 -11 61 9 0 8 -8 26
-17 43 -9 16 -14 36 -10 47 7 17 8 17 27 0 21 -19 50 -14 50 8 0 34 -109 76
-235 90 -15 1 -19 -3 -18 -20 1 -12 -5 -24 -14 -27 -9 -4 -17 -5 -18 -4 -1 2
-11 17 -22 33 -11 17 -23 45 -26 63 -6 31 -6 32 29 32 20 0 62 -6 93 -14 54
-14 108 -20 143 -17 15 1 14 5 -7 37 -14 20 -25 41 -25 45 0 5 -5 9 -12 9 -6
0 -22 10 -35 22 -27 26 -85 48 -131 52 -53 4 -89 43 -101 111 -6 32 -11 86
-11 120 0 107 26 121 290 149 80 9 159 18 175 20 17 1 -482 4 -1107 5 l-1138
1 0 -1570z"/>
<path d="M3481 3130 c8 -5 42 -8 75 -6 32 1 64 -1 70 -6 6 -4 43 -9 82 -11 72
-4 98 -16 166 -78 17 -17 51 -16 41 1 -3 4 12 4 33 -1 20 -4 46 -6 57 -3 14 4
43 -11 90 -46 39 -28 72 -57 74 -63 2 -7 12 -30 22 -51 10 -22 17 -41 14 -44
-2 -2 2 -11 10 -19 19 -19 19 -53 0 -53 -19 0 -19 -9 0 -34 8 -11 15 -26 15
-34 0 -8 9 -23 21 -33 12 -10 19 -24 16 -31 -2 -7 0 -24 6 -38 5 -14 11 -38
13 -55 7 -63 17 -97 30 -102 14 -5 26 -42 39 -115 4 -26 11 -38 22 -38 13 0
14 -3 6 -11 -9 -9 -6 -21 13 -48 13 -19 24 -42 24 -49 0 -7 5 -10 10 -7 8 5 7
12 -2 23 -14 17 -14 17 38 -4 12 -5 14 -1 9 18 -4 16 -1 29 9 37 9 8 16 9 16
3 0 -5 17 -9 37 -8 32 1 37 -2 44 -26 4 -16 3 -30 -2 -33 -10 -7 -3 -51 17
-114 20 -59 11 -62 -16 -6 -12 25 -26 43 -30 40 -5 -3 -11 1 -13 7 -3 8 -6 6
-6 -4 -1 -10 6 -18 14 -18 8 0 15 -4 15 -10 0 -5 -5 -9 -12 -7 -22 4 -21 -34
1 -40 12 -3 21 -10 21 -15 0 -5 -6 -6 -12 -1 -7 4 -5 -5 5 -20 9 -14 17 -36
17 -47 0 -24 -31 -41 -38 -21 -2 7 -13 21 -23 29 -11 9 -19 28 -20 42 0 14 -3
19 -6 12 -2 -6 -9 -10 -14 -6 -14 8 -11 -21 7 -66 9 -22 20 -37 25 -34 5 3 14
-7 19 -21 6 -17 16 -25 24 -22 8 3 16 -2 19 -14 3 -10 1 -19 -4 -19 -5 0 -9 5
-9 10 0 6 -4 10 -10 10 -12 0 -13 -10 0 -30 7 -12 12 -12 29 4 19 17 20 17 40
-3 21 -21 30 -78 10 -66 -5 4 -3 -10 5 -30 9 -21 16 -39 16 -40 0 -9 -60 -10
-64 -1 -2 6 -5 1 -5 -10 -1 -12 6 -27 15 -35 9 -7 13 -21 10 -33 -3 -12 -1
-39 4 -61 6 -26 6 -41 -1 -44 -6 -1 -2 -9 8 -17 17 -13 17 -13 -4 -14 -21 0
-23 5 -24 48 -1 47 -16 114 -18 80 -1 -10 -8 -18 -16 -18 -20 0 -19 -23 6 -93
11 -32 18 -61 15 -64 -3 -4 -6 2 -6 12 0 14 -3 16 -11 8 -14 -14 -4 -47 12
-38 12 8 48 -22 60 -50 6 -15 8 -16 8 -4 1 9 -8 26 -19 39 -21 24 -26 40 -12
40 16 0 39 -66 36 -105 -1 -22 -3 -50 -3 -62 -1 -20 -4 -21 -28 -12 l-28 10
23 -21 c12 -11 23 -31 23 -43 1 -12 3 -38 4 -57 1 -19 5 -50 9 -68 6 -27 10
-31 22 -21 11 9 14 8 13 -2 -1 -18 -17 -56 -20 -46 -1 4 -3 10 -4 15 -2 4 -6
17 -10 29 -9 27 -25 21 -26 -10 0 -18 -3 -16 -15 11 -13 30 -34 44 -34 22 0
-23 -30 -8 -50 25 -12 19 -27 36 -33 36 -28 3 -32 5 -32 14 0 6 13 9 28 7 28
-2 28 -2 12 27 -22 44 -19 46 24 12 45 -36 56 -29 46 29 -8 47 -18 56 -36 33
-12 -15 -12 -16 4 -10 19 7 24 -8 5 -19 -6 -4 -23 6 -40 25 -31 35 -31 56 0
28 18 -16 20 -16 35 1 10 10 14 22 10 26 -4 4 -1 11 6 15 8 5 10 14 6 22 -6 9
-11 6 -18 -12 -6 -13 -10 -26 -9 -29 0 -3 -8 -7 -19 -7 -22 -2 -62 66 -53 90
3 10 -6 22 -25 33 -17 10 -31 23 -31 28 0 5 -8 18 -17 28 -16 18 -16 18 0 12
21 -8 22 5 2 33 -13 18 -13 26 -4 41 10 16 8 25 -16 56 -15 20 -25 40 -21 44
9 9 44 -36 52 -66 5 -18 9 -20 15 -11 5 8 3 20 -5 29 -7 8 -18 44 -25 80 -21
110 -33 141 -59 151 -32 12 -56 -5 -42 -31 6 -10 10 -29 10 -42 0 -13 5 -29
12 -36 6 -6 8 -15 4 -19 -4 -4 -11 -1 -15 6 -13 20 -24 -36 -11 -58 5 -11 7
-27 4 -35 -5 -12 -11 -6 -25 21 -10 21 -19 42 -19 49 0 6 -7 17 -15 24 -8 7
-13 16 -10 20 3 5 1 11 -5 15 -5 3 -10 14 -10 23 0 9 -8 26 -16 37 -15 19 -16
18 -11 -15 3 -19 8 -46 13 -60 l8 -25 -26 28 c-24 25 -27 26 -42 12 -9 -9 -16
-26 -17 -38 0 -12 -3 -16 -6 -9 -2 6 -9 10 -14 6 -5 -3 -9 0 -9 6 0 6 -4 9
-10 5 -5 -3 0 -15 11 -26 16 -16 18 -23 8 -35 -6 -8 -18 -14 -25 -14 -8 0 -14
-4 -14 -10 0 -5 5 -10 10 -10 6 0 10 -4 10 -10 0 -5 -7 -7 -15 -4 -27 11 -8
-25 20 -37 5 -2 8 -10 7 -18 -2 -8 7 -37 21 -65 50 -106 58 -121 53 -103 -8
26 21 21 30 -5 4 -13 7 -29 5 -36 -3 -19 25 -43 43 -36 9 3 16 1 16 -5 0 -6 5
-11 12 -11 6 0 8 3 5 7 -4 3 -2 12 4 19 9 11 6 16 -12 22 -16 6 -19 11 -10 17
9 5 10 10 3 14 -7 4 -8 12 -2 21 7 11 11 11 23 1 23 -19 57 -22 50 -5 -3 8 -1
14 5 14 18 0 32 -27 38 -76 4 -27 10 -53 14 -59 4 -5 10 -28 13 -50 3 -22 3
-34 0 -27 -7 17 -23 5 -23 -19 0 -11 10 -23 24 -29 37 -14 56 -49 56 -105 0
-60 -9 -97 -21 -89 -5 3 -9 -16 -10 -43 -1 -26 -4 -59 -8 -73 -6 -21 -8 -22
-14 -8 -3 10 -2 20 3 23 15 9 12 24 -10 42 -11 10 -20 22 -20 29 0 15 -46 38
-63 31 -10 -4 -14 -17 -13 -36 l2 -29 -29 15 c-16 8 -31 23 -34 32 -2 10 -18
25 -34 35 -16 9 -29 23 -29 30 0 7 -9 25 -20 39 -11 14 -20 31 -20 39 0 15
-34 48 -50 48 -13 0 -13 -7 0 -31 7 -13 7 -19 0 -19 -5 0 -10 5 -10 11 0 5 -5
7 -11 3 -8 -4 -10 -26 -6 -62 l6 -54 -25 23 c-17 16 -24 18 -24 8 0 -8 5 -20
12 -27 9 -9 9 -12 1 -12 -7 0 -15 5 -18 10 -10 17 -25 11 -25 -10 0 -10 8 -24
18 -29 9 -6 13 -11 8 -11 -5 0 -3 -6 3 -14 15 -17 41 -106 32 -106 -21 0 -54
53 -58 94 -3 25 -9 46 -13 46 -15 0 -18 -65 -4 -94 8 -16 14 -34 14 -41 0 -6
11 -22 25 -35 25 -24 31 -57 16 -94 -5 -13 -10 -16 -14 -9 -4 7 -3 14 3 18 24
15 9 56 -40 105 -27 28 -50 53 -50 56 0 3 -11 22 -25 42 -28 41 -29 41 -15 -8
10 -36 5 -70 -11 -70 -5 0 -9 9 -9 19 0 11 -5 23 -11 26 -7 5 -8 -4 -4 -28 6
-33 5 -35 -14 -30 -17 4 -21 13 -21 47 0 23 -7 51 -16 62 -15 18 -15 17 -10
-14 4 -20 2 -31 -4 -27 -6 3 -10 -1 -10 -10 0 -9 5 -13 10 -10 6 4 10 -5 10
-19 0 -14 5 -26 10 -26 6 0 10 -7 10 -15 0 -8 6 -15 13 -16 6 0 24 -2 39 -4
20 -3 28 2 33 18 6 18 9 15 14 -18 4 -27 2 -43 -6 -48 -9 -6 -4 -21 18 -58 30
-48 35 -66 14 -51 -6 4 -31 30 -57 58 -45 50 -63 59 -51 27 3 -8 0 -19 -8 -24
-19 -12 -29 -11 -29 2 0 7 -10 27 -21 46 -16 25 -24 32 -33 23 -7 -7 -7 -13
-1 -18 15 -10 35 -49 35 -67 0 -8 -7 -15 -15 -15 -8 0 -15 9 -15 21 0 29 -48
89 -66 82 -8 -3 -14 0 -14 6 0 6 -7 8 -15 5 -9 -4 -21 6 -33 26 l-20 31 -6
-24 c-3 -14 1 -41 9 -61 8 -19 15 -43 15 -53 0 -15 -4 -14 -20 7 -18 23 -20
23 -20 5 0 -40 -38 17 -46 69 -6 42 -4 48 8 43 10 -3 20 4 29 19 11 21 10 27
-2 39 -26 25 -43 22 -47 -10 -6 -54 -5 -99 3 -137 7 -33 5 -38 -11 -38 -14 0
-15 -3 -6 -12 17 -17 15 -38 -3 -38 -16 0 -19 -9 -9 -34 4 -9 18 -16 33 -16
30 0 51 -16 51 -39 0 -12 -3 -12 -12 -3 -15 15 -28 16 -28 2 0 -6 16 -20 35
-31 43 -26 46 -41 5 -26 -16 6 -30 14 -30 18 0 4 -11 7 -26 7 -20 0 -24 -5
-22 -22 2 -11 15 -27 31 -34 27 -13 36 -36 17 -47 -5 -3 -10 -20 -10 -36 0
-21 6 -32 23 -39 l22 -9 -22 0 c-13 -1 -23 -6 -23 -12 0 -6 -8 -18 -17 -27
-16 -16 -16 -16 -10 0 7 19 -20 81 -33 73 -4 -3 -13 2 -20 10 -17 21 -32 8
-19 -16 6 -11 7 -34 4 -50 -6 -25 -1 -34 26 -59 38 -36 46 -33 25 9 -9 16 -16
36 -15 43 0 7 5 3 11 -9 6 -13 15 -23 20 -23 4 0 8 -6 8 -14 0 -8 5 -16 12
-18 23 -8 -4 -30 -28 -24 -32 8 -33 -23 -1 -32 18 -5 15 -7 -18 -13 -26 -4
-42 -3 -47 5 -31 51 -58 52 -63 2 -4 -29 13 -45 26 -25 12 20 22 3 15 -26 -4
-14 -14 -25 -23 -25 -13 0 -14 -3 -5 -12 15 -15 16 -42 2 -33 -6 4 -8 11 -5
16 4 5 1 9 -4 9 -6 0 -11 15 -11 33 l-1 32 -19 -24 c-11 -13 -20 -31 -20 -40
-1 -14 -2 -14 -11 1 -5 10 -16 18 -24 18 -11 0 -12 -6 -5 -26 6 -14 10 -26 10
-27 0 -1 -11 -2 -25 -2 -21 0 -24 4 -23 35 0 19 5 43 10 53 10 20 3 67 -10 67
-4 -1 -17 -9 -30 -20 -22 -18 -22 -20 -7 -50 8 -16 11 -30 6 -30 -10 0 -19
-40 -13 -58 3 -9 271 -12 1198 -12 l1194 0 0 75 c0 42 -5 85 -12 96 -10 17
-10 23 0 26 9 4 12 308 12 1474 l0 1469 -142 -1 c-79 -1 -136 -3 -128 -5 8 -3
31 -33 50 -67 57 -100 63 -176 39 -472 -11 -147 -20 -181 -61 -230 -36 -43
-44 -63 -52 -124 -13 -101 -58 -188 -130 -252 -32 -27 -48 -33 -95 -37 -70 -4
-117 19 -148 74 -26 46 -57 242 -41 261 5 7 8 20 6 30 -2 10 11 40 29 67 37
55 39 63 18 86 -14 15 -14 22 1 61 9 27 15 76 15 126 0 45 4 85 9 88 5 3 7 19
5 36 -3 21 1 32 13 37 42 15 43 29 5 68 l-36 38 -19 -24 c-25 -31 -78 -70 -96
-70 -17 0 23 59 47 67 23 8 61 44 61 58 0 6 14 21 30 33 17 13 30 29 30 37 0
8 6 15 14 15 7 0 19 7 26 15 6 8 19 14 28 13 60 -5 80 2 90 31 l10 28 -60 7
c-98 10 -1645 7 -1627 -4z m976 -479 c10 -19 25 -37 33 -39 11 -4 10 0 -3 16
-18 20 -18 20 2 15 24 -6 29 14 6 23 -8 4 -15 11 -15 18 0 6 12 -2 25 -19 13
-16 30 -37 37 -45 17 -21 34 -57 48 -103 7 -22 18 -51 26 -65 16 -31 18 -52 5
-52 -12 0 -41 46 -41 65 0 8 -7 15 -15 15 -17 0 -34 29 -28 48 3 6 0 12 -6 12
-6 0 -11 6 -11 14 0 8 -9 17 -20 21 -11 3 -28 17 -39 31 -10 13 -22 24 -26 24
-10 0 -30 23 -38 43 -4 10 -11 15 -17 12 -11 -7 -12 -3 -4 18 8 23 58 -9 81
-52z m343 -1057 c0 -49 11 -61 34 -38 14 14 19 13 51 -12 39 -29 42 -40 20
-68 -14 -19 -15 -19 -15 5 0 14 -6 33 -13 43 -13 18 -14 18 -21 1 -4 -10 -2
-23 4 -29 5 -5 10 -18 10 -28 0 -11 6 -31 14 -47 9 -17 13 -42 9 -69 -6 -46
-23 -58 -23 -16 0 17 -6 28 -20 31 -20 5 -29 43 -10 43 6 0 10 -5 10 -11 0 -5
5 -7 10 -4 14 9 -7 35 -26 35 -8 0 -14 5 -14 11 0 5 5 7 12 3 8 -5 9 -2 5 10
-4 10 -7 34 -7 54 0 28 -3 33 -10 22 -6 -10 -10 -11 -10 -2 0 6 -5 12 -11 12
-7 0 -10 -14 -7 -35 3 -25 0 -35 -10 -35 -10 0 -13 -8 -9 -27 3 -15 1 -36 -5
-47 -7 -13 -6 -25 1 -40 9 -17 9 -29 -2 -55 l-14 -33 -6 56 c-3 30 -10 63 -16
73 -9 17 -10 16 -19 -6 -5 -14 -12 -20 -15 -14 -4 6 3 23 14 37 12 15 18 30
15 34 -4 3 -11 0 -16 -8 -7 -11 -11 -8 -19 13 -6 16 -11 35 -11 43 0 8 -4 14
-10 14 -5 0 -10 7 -10 15 0 8 5 14 11 13 6 -2 14 3 16 10 3 6 -2 12 -11 12 -9
0 -16 8 -16 18 0 14 2 15 10 2 8 -13 10 -12 10 3 0 10 -5 27 -11 39 -13 25 -3
37 15 17 8 -8 16 -34 17 -59 3 -47 16 -86 26 -76 4 3 12 1 20 -5 10 -9 12 -6
8 20 -3 17 -7 44 -10 61 -3 23 -1 28 10 23 11 -4 15 3 15 27 0 28 2 31 15 20
9 -8 15 -29 15 -56z"/>
<path d="M3010 2860 c-8 -5 -46 -18 -85 -30 -38 -13 -72 -26 -75 -31 -3 -4
-17 -10 -30 -12 -14 -2 -32 -7 -40 -10 -48 -19 -94 -26 -107 -15 -10 8 -17 8
-25 0 -7 -7 -19 -12 -28 -12 -10 0 -28 -9 -41 -21 -13 -11 -39 -27 -58 -35
-30 -13 -33 -17 -27 -45 3 -17 6 -35 6 -40 0 -17 21 -9 47 17 14 14 23 19 20
10 -9 -23 31 -48 55 -35 10 5 18 6 18 2 0 -4 8 7 16 25 17 34 34 42 34 17 0
-28 29 -28 85 0 30 14 57 30 60 36 4 5 16 9 29 9 19 0 105 26 156 46 24 10 64
11 71 2 3 -4 21 -3 39 2 27 8 43 6 69 -6 28 -14 41 -15 66 -5 23 8 40 8 63 0
35 -12 67 -6 57 11 -4 6 6 10 22 10 26 1 27 2 9 15 -17 13 -16 14 15 24 34 9
34 9 5 10 -45 2 -148 31 -183 53 -28 17 -33 17 -33 4 0 -9 -4 -16 -10 -16 -5
0 -10 5 -10 12 0 6 -3 9 -6 5 -3 -3 -17 -2 -30 3 -14 6 -26 6 -29 -1 -4 -5
-10 -7 -15 -4 -16 10 -95 14 -110 5z"/>
<path d="M2781 2551 c-16 -29 -30 -101 -21 -106 5 -3 11 -1 15 5 14 23 26 8
19 -25 -5 -28 -3 -36 12 -42 10 -4 19 -2 22 5 2 7 10 12 18 12 11 0 13 9 8 41
-9 54 8 49 38 -11 24 -46 49 -59 78 -40 13 9 13 12 -1 23 -20 15 -33 53 -24
68 5 7 12 5 23 -5 16 -14 118 -25 138 -15 5 3 16 5 24 4 8 -1 21 -3 29 -3 9
-1 1 -12 -18 -26 l-34 -25 27 -7 c14 -3 32 -2 39 3 16 13 107 17 107 5 0 -5
11 -7 24 -5 22 4 22 7 11 39 -15 43 -17 45 -57 49 -54 4 -162 26 -173 34 -12
10 -67 20 -146 28 -43 4 -66 1 -100 -15 -24 -11 -45 -19 -47 -17 -2 2 1 13 8
24 7 13 7 21 1 21 -6 0 -15 -8 -20 -19z"/>
<path d="M4106 1352 c-8 -24 17 -76 49 -103 13 -11 20 -31 22 -65 1 -27 2 -52
2 -56 2 -19 21 -6 22 15 1 19 2 20 6 2 6 -22 30 -62 52 -87 9 -10 25 -29 36
-43 33 -43 47 -56 54 -50 3 4 -3 13 -14 21 -19 14 -19 16 -2 28 22 17 22 43
-2 55 -22 12 -31 5 -25 -17 3 -10 -6 3 -21 28 -32 56 -49 84 -55 90 -13 12
-40 60 -40 70 0 6 6 8 13 4 7 -4 9 -3 4 2 -5 5 -13 10 -18 10 -5 1 -13 2 -19
3 -5 0 -9 4 -9 9 3 19 -2 33 -11 27 -6 -3 -10 4 -10 17 0 14 -6 33 -14 43 -13
18 -14 18 -20 -3z"/>
<path d="M2626 1225 c-9 -13 -16 -29 -16 -35 0 -5 -4 -10 -9 -10 -5 0 -12 -17
-16 -37 -4 -21 -9 -42 -12 -46 -7 -12 -43 49 -43 73 0 11 -4 20 -10 20 -5 0
-10 8 -10 17 0 36 -13 0 -17 -47 -3 -39 -1 -50 11 -50 8 0 18 -5 21 -10 4 -6
1 -9 -7 -8 -9 2 -12 -7 -10 -31 1 -19 4 -36 5 -37 1 -2 22 0 45 3 36 5 42 9
37 24 -5 15 -1 19 19 19 29 0 35 15 10 24 -13 5 -15 14 -9 44 4 20 10 42 14
47 15 22 30 65 22 65 -5 0 -16 -11 -25 -25z"/>
<path d="M2700 1194 c0 -11 -6 -13 -19 -9 -21 6 -21 6 -6 -85 2 -14 4 -34 4
-44 1 -18 2 -18 21 -1 11 10 20 31 20 47 0 18 5 28 15 28 15 0 20 -16 17 -52
-1 -10 3 -18 8 -18 6 0 10 5 10 10 0 6 5 10 10 10 6 0 10 -7 10 -15 0 -9 12
-20 26 -25 32 -13 37 -13 28 1 -4 7 2 9 17 7 22 -3 23 0 24 47 0 49 -1 50 -30
50 -26 0 -30 4 -29 25 1 14 -4 28 -9 32 -15 9 -37 -10 -31 -27 10 -26 -13 -23
-45 5 -37 34 -41 36 -41 14z"/>
<path d="M3225 1100 c3 -5 20 -13 37 -18 50 -13 43 -28 -17 -40 -31 -7 -84
-25 -118 -41 -34 -16 -77 -32 -94 -36 -18 -4 -33 -11 -33 -17 0 -18 78 -2 160
32 45 18 96 32 126 33 33 1 50 6 47 13 -5 15 32 25 45 12 6 -6 12 -6 17 2 9
15 -14 31 -36 25 -8 -3 -26 6 -39 20 -17 18 -34 25 -62 25 -23 0 -37 -4 -33
-10z"/>
<path d="M2627 693 c-13 -12 -7 -24 19 -33 14 -6 28 -19 31 -30 6 -22 23 -27
23 -7 0 9 2 9 9 -1 4 -8 11 -13 15 -13 20 3 26 -1 26 -19 0 -11 6 -23 14 -26
8 -3 12 -13 9 -25 -7 -25 26 -39 39 -16 11 21 38 22 38 2 0 -8 2 -15 5 -15 7
0 79 41 95 54 8 7 22 16 32 19 13 5 15 12 8 43 -8 35 -22 52 -45 55 -5 1 -68
2 -140 4 -71 1 -139 5 -151 9 -11 3 -23 3 -27 -1z"/>
</g>
</svg>
